<mxfile host="app.diagrams.net" modified="2023-02-24T03:29:29.085Z" agent="5.0 (Macintosh; Intel Mac OS X 10_15_7) AppleWebKit/537.36 (KHTML, like Gecko) Chrome/110.0.0.0 Safari/537.36" etag="3p1OqUqFllsIeGWgpc4j" version="20.8.23" type="github">
  <diagram name="第 1 页" id="c5Gru5W-eX8UfuUOHiOT">
    <mxGraphModel dx="869" dy="574" grid="1" gridSize="10" guides="1" tooltips="1" connect="1" arrows="1" fold="1" page="1" pageScale="1" pageWidth="827" pageHeight="1169" math="0" shadow="0">
      <root>
        <mxCell id="0" />
        <mxCell id="1" parent="0" />
        <mxCell id="LkF5VIXBnRj9gDnd6pt5-13" value="" style="group" vertex="1" connectable="0" parent="1">
          <mxGeometry x="90" y="70" width="570" height="360" as="geometry" />
        </mxCell>
        <mxCell id="LkF5VIXBnRj9gDnd6pt5-1" value="" style="rounded=0;whiteSpace=wrap;html=1;" vertex="1" parent="LkF5VIXBnRj9gDnd6pt5-13">
          <mxGeometry width="570" height="360" as="geometry" />
        </mxCell>
        <mxCell id="LkF5VIXBnRj9gDnd6pt5-4" value="" style="rounded=0;whiteSpace=wrap;html=1;" vertex="1" parent="LkF5VIXBnRj9gDnd6pt5-13">
          <mxGeometry width="570" height="38.91891891891891" as="geometry" />
        </mxCell>
        <mxCell id="LkF5VIXBnRj9gDnd6pt5-5" value="PageOperation" style="rounded=0;whiteSpace=wrap;html=1;" vertex="1" parent="LkF5VIXBnRj9gDnd6pt5-13">
          <mxGeometry x="459.5348837209302" y="7.297297297297296" width="101.62790697674419" height="24.324324324324323" as="geometry" />
        </mxCell>
        <mxCell id="LkF5VIXBnRj9gDnd6pt5-6" value="TableContext" style="rounded=0;whiteSpace=wrap;html=1;" vertex="1" parent="LkF5VIXBnRj9gDnd6pt5-13">
          <mxGeometry x="39.76744186046512" y="38.91891891891891" width="503.72093023255815" height="287.027027027027" as="geometry" />
        </mxCell>
        <mxCell id="LkF5VIXBnRj9gDnd6pt5-7" value="" style="rounded=0;whiteSpace=wrap;html=1;" vertex="1" parent="LkF5VIXBnRj9gDnd6pt5-13">
          <mxGeometry y="325.94594594594594" width="570" height="34.05405405405405" as="geometry" />
        </mxCell>
        <mxCell id="LkF5VIXBnRj9gDnd6pt5-8" value="PageTitle" style="rounded=0;whiteSpace=wrap;html=1;" vertex="1" parent="LkF5VIXBnRj9gDnd6pt5-13">
          <mxGeometry x="8.837209302325581" y="7.297297297297296" width="101.62790697674419" height="24.324324324324323" as="geometry" />
        </mxCell>
        <mxCell id="LkF5VIXBnRj9gDnd6pt5-9" value="Filter" style="rounded=0;whiteSpace=wrap;html=1;" vertex="1" parent="LkF5VIXBnRj9gDnd6pt5-13">
          <mxGeometry x="39.76744186046512" y="38.91891891891891" width="503.72093023255815" height="34.05405405405405" as="geometry" />
        </mxCell>
        <mxCell id="LkF5VIXBnRj9gDnd6pt5-11" value="Pageination" style="rounded=0;whiteSpace=wrap;html=1;" vertex="1" parent="LkF5VIXBnRj9gDnd6pt5-13">
          <mxGeometry x="335.8139534883721" y="330.8108108108108" width="225.34883720930233" height="24.324324324324323" as="geometry" />
        </mxCell>
        <mxCell id="LkF5VIXBnRj9gDnd6pt5-12" value="TableOperation" style="rounded=0;whiteSpace=wrap;html=1;" vertex="1" parent="LkF5VIXBnRj9gDnd6pt5-13">
          <mxGeometry x="8.837209302325581" y="330.8108108108108" width="101.62790697674419" height="24.324324324324323" as="geometry" />
        </mxCell>
      </root>
    </mxGraphModel>
  </diagram>
</mxfile>
